<svg width="476" height="195" viewBox="0 0 476 195" fill="none" xmlns="http://www.w3.org/2000/svg">
<mask id="path-1-outside-1_893_6732" maskUnits="userSpaceOnUse" x="7" y="1" width="145" height="192" fill="black">
<rect fill="white" x="7" y="1" width="145" height="192"/>
<path d="M8.88672 155.057V132.078L90.5176 2.83984H108.672V36.8633H96.9922L38.5938 129.285V130.809H150.693V155.057H8.88672ZM98.2617 192V148.074L98.5156 137.537V2.83984H125.684V192H98.2617Z"/>
</mask>
<path d="M8.88672 155.057H7.88672V156.057H8.88672V155.057ZM8.88672 132.078L8.04125 131.544L7.88672 131.789V132.078H8.88672ZM90.5176 2.83984V1.83984H89.9664L89.6721 2.30582L90.5176 2.83984ZM108.672 2.83984H109.672V1.83984H108.672V2.83984ZM108.672 36.8633V37.8633H109.672V36.8633H108.672ZM96.9922 36.8633V35.8633H96.4412L96.1468 36.3291L96.9922 36.8633ZM38.5938 129.285L37.7484 128.751L37.5938 128.996V129.285H38.5938ZM38.5938 130.809H37.5938V131.809H38.5938V130.809ZM150.693 130.809H151.693V129.809H150.693V130.809ZM150.693 155.057V156.057H151.693V155.057H150.693ZM98.2617 192H97.2617V193H98.2617V192ZM98.2617 148.074L97.262 148.05L97.2617 148.062V148.074H98.2617ZM98.5156 137.537L99.5153 137.561L99.5156 137.549V137.537H98.5156ZM98.5156 2.83984V1.83984H97.5156V2.83984H98.5156ZM125.684 2.83984H126.684V1.83984H125.684V2.83984ZM125.684 192V193H126.684V192H125.684ZM9.88672 155.057V132.078H7.88672V155.057H9.88672ZM9.73219 132.612L91.363 3.37387L89.6721 2.30582L8.04125 131.544L9.73219 132.612ZM90.5176 3.83984H108.672V1.83984H90.5176V3.83984ZM107.672 2.83984V36.8633H109.672V2.83984H107.672ZM108.672 35.8633H96.9922V37.8633H108.672V35.8633ZM96.1468 36.3291L37.7484 128.751L39.4391 129.819L97.8376 37.3974L96.1468 36.3291ZM37.5938 129.285V130.809H39.5938V129.285H37.5938ZM38.5938 131.809H150.693V129.809H38.5938V131.809ZM149.693 130.809V155.057H151.693V130.809H149.693ZM150.693 154.057H8.88672V156.057H150.693V154.057ZM99.2617 192V148.074H97.2617V192H99.2617ZM99.2614 148.098L99.5153 137.561L97.5159 137.513L97.262 148.05L99.2614 148.098ZM99.5156 137.537V2.83984H97.5156V137.537H99.5156ZM98.5156 3.83984H125.684V1.83984H98.5156V3.83984ZM124.684 2.83984V192H126.684V2.83984H124.684ZM125.684 191H98.2617V193H125.684V191Z" fill="#AFE8D1" fill-opacity="0.3" mask="url(#path-1-outside-1_893_6732)"/>
<mask id="path-3-inside-2_893_6732" fill="white">
<path d="M237.457 194.539C222.9 194.539 210.416 190.73 200.006 183.113C189.68 175.496 181.767 164.493 176.266 150.105C170.849 135.633 168.141 118.113 168.141 97.5469C168.141 77.0651 170.891 59.5879 176.393 45.1152C181.894 30.5579 189.807 19.4707 200.133 11.8535C210.543 4.15169 222.984 0.300781 237.457 0.300781C252.014 0.300781 264.456 4.15169 274.781 11.8535C285.191 19.4707 293.105 30.5579 298.521 45.1152C304.023 59.5879 306.773 77.0651 306.773 97.5469C306.773 118.113 304.065 135.633 298.648 150.105C293.232 164.493 285.361 175.496 275.035 183.113C264.71 190.73 252.184 194.539 237.457 194.539ZM237.457 170.164C246.344 170.164 253.834 167.329 259.928 161.658C266.021 155.988 270.676 147.736 273.893 136.902C277.109 125.984 278.717 112.866 278.717 97.5469C278.717 82.1432 277.109 69.0247 273.893 58.1914C270.676 47.2734 266.021 38.9792 259.928 33.3086C253.834 27.5534 246.344 24.6758 237.457 24.6758C224.339 24.6758 214.182 31.0658 206.988 43.8457C199.879 56.541 196.324 74.4414 196.324 97.5469C196.324 112.866 197.932 125.984 201.148 136.902C204.365 147.736 209.02 155.988 215.113 161.658C221.292 167.329 228.74 170.164 237.457 170.164Z"/>
</mask>
<path d="M200.006 183.113L199.412 183.918L199.415 183.92L200.006 183.113ZM176.266 150.105L175.329 150.456L175.332 150.463L176.266 150.105ZM176.393 45.1152L177.327 45.4705L177.328 45.4687L176.393 45.1152ZM200.133 11.8535L200.726 12.6582L200.728 12.6574L200.133 11.8535ZM274.781 11.8535L274.183 12.6551L274.191 12.6605L274.781 11.8535ZM298.521 45.1152L297.584 45.464L297.587 45.4705L298.521 45.1152ZM298.648 150.105L299.584 150.458L299.585 150.456L298.648 150.105ZM259.928 161.658L260.609 162.39L259.928 161.658ZM273.893 136.902L274.851 137.187L274.852 137.185L273.893 136.902ZM273.893 58.1914L272.933 58.474L272.934 58.476L273.893 58.1914ZM259.928 33.3086L259.241 34.0356L259.247 34.0407L259.928 33.3086ZM206.988 43.8457L206.117 43.3552L206.116 43.3571L206.988 43.8457ZM201.148 136.902L200.189 137.185L200.19 137.187L201.148 136.902ZM215.113 161.658L214.432 162.39L214.437 162.395L215.113 161.658ZM237.457 193.539C223.084 193.539 210.814 189.782 200.596 182.306L199.415 183.92C210.019 191.679 222.716 195.539 237.457 195.539V193.539ZM200.6 182.309C190.456 174.826 182.647 163.994 177.2 149.748L175.332 150.463C180.887 164.993 188.904 176.166 199.412 183.918L200.6 182.309ZM177.202 149.755C171.839 135.425 169.141 118.031 169.141 97.5469H167.141C167.141 118.196 169.859 135.841 175.329 150.456L177.202 149.755ZM169.141 97.5469C169.141 77.1495 171.881 59.7996 177.327 45.4705L175.458 44.7599C169.902 59.3762 167.141 76.9807 167.141 97.5469H169.141ZM177.328 45.4687C182.776 31.053 190.586 20.1388 200.726 12.6582L199.539 11.0488C189.028 18.8026 181.012 30.0629 175.457 44.7617L177.328 45.4687ZM200.728 12.6574C210.945 5.09782 223.172 1.30078 237.457 1.30078V-0.699219C222.797 -0.699219 210.14 3.20557 199.538 11.0496L200.728 12.6574ZM237.457 1.30078C251.828 1.30078 264.053 5.0986 274.183 12.6551L275.379 11.0519C264.859 3.20479 252.2 -0.699219 237.457 -0.699219V1.30078ZM274.191 12.6605C284.413 20.1404 292.222 31.0522 297.584 45.464L299.459 44.7665C293.988 30.0637 285.97 18.801 275.372 11.0465L274.191 12.6605ZM297.587 45.4705C303.033 59.7996 305.773 77.1495 305.773 97.5469H307.773C307.773 76.9807 305.012 59.3762 299.456 44.7599L297.587 45.4705ZM305.773 97.5469C305.773 118.031 303.075 135.425 297.712 149.755L299.585 150.456C305.055 135.841 307.773 118.196 307.773 97.5469H305.773ZM297.713 149.753C292.35 163.997 284.583 174.827 274.442 182.309L275.629 183.918C286.138 176.165 294.113 164.99 299.584 150.458L297.713 149.753ZM274.442 182.309C264.313 189.781 252.003 193.539 237.457 193.539V195.539C252.364 195.539 265.107 191.68 275.629 183.918L274.442 182.309ZM237.457 171.164C246.578 171.164 254.317 168.245 260.609 162.39L259.247 160.926C253.351 166.412 246.11 169.164 237.457 169.164V171.164ZM260.609 162.39C266.872 156.562 271.602 148.133 274.851 137.187L272.934 136.618C269.751 147.339 265.171 155.413 259.247 160.926L260.609 162.39ZM274.852 137.185C278.102 126.15 279.717 112.931 279.717 97.5469H277.717C277.717 112.801 276.115 125.819 272.933 136.62L274.852 137.185ZM279.717 97.5469C279.717 82.0792 278.103 68.8591 274.851 57.9068L272.934 58.476C276.115 69.1903 277.717 82.2072 277.717 97.5469H279.717ZM274.852 57.9088C271.603 46.8795 266.874 38.4062 260.609 32.5765L259.247 34.0407C265.169 39.5521 269.75 47.6674 272.933 58.474L274.852 57.9088ZM260.614 32.5816C254.323 26.6398 246.582 23.6758 237.457 23.6758V25.6758C246.105 25.6758 253.345 28.467 259.241 34.0356L260.614 32.5816ZM237.457 23.6758C223.929 23.6758 213.463 30.3055 206.117 43.3552L207.86 44.3362C214.902 31.826 224.749 25.6758 237.457 25.6758V23.6758ZM206.116 43.3571C198.887 56.2648 195.324 74.3611 195.324 97.5469H197.324C197.324 74.5217 200.87 56.8173 207.861 44.3343L206.116 43.3571ZM195.324 97.5469C195.324 112.931 196.939 126.15 200.189 137.185L202.108 136.62C198.926 125.819 197.324 112.801 197.324 97.5469H195.324ZM200.19 137.187C203.439 148.133 208.169 156.562 214.432 162.39L215.795 160.926C209.87 155.413 205.29 147.339 202.107 136.618L200.19 137.187ZM214.437 162.395C220.808 168.242 228.5 171.164 237.457 171.164V169.164C228.979 169.164 221.775 166.415 215.789 160.921L214.437 162.395Z" fill="#AFE8D1" fill-opacity="0.3" mask="url(#path-3-inside-2_893_6732)"/>
<mask id="path-5-outside-3_893_6732" maskUnits="userSpaceOnUse" x="324" y="1" width="145" height="192" fill="black">
<rect fill="white" x="324" y="1" width="145" height="192"/>
<path d="M325.887 155.057V132.078L407.518 2.83984H425.672V36.8633H413.992L355.594 129.285V130.809H467.693V155.057H325.887ZM415.262 192V148.074L415.516 137.537V2.83984H442.684V192H415.262Z"/>
</mask>
<path d="M325.887 155.057H324.887V156.057H325.887V155.057ZM325.887 132.078L325.041 131.544L324.887 131.789V132.078H325.887ZM407.518 2.83984V1.83984H406.966L406.672 2.30582L407.518 2.83984ZM425.672 2.83984H426.672V1.83984H425.672V2.83984ZM425.672 36.8633V37.8633H426.672V36.8633H425.672ZM413.992 36.8633V35.8633H413.441L413.147 36.3291L413.992 36.8633ZM355.594 129.285L354.748 128.751L354.594 128.996V129.285H355.594ZM355.594 130.809H354.594V131.809H355.594V130.809ZM467.693 130.809H468.693V129.809H467.693V130.809ZM467.693 155.057V156.057H468.693V155.057H467.693ZM415.262 192H414.262V193H415.262V192ZM415.262 148.074L414.262 148.05L414.262 148.062V148.074H415.262ZM415.516 137.537L416.515 137.561L416.516 137.549V137.537H415.516ZM415.516 2.83984V1.83984H414.516V2.83984H415.516ZM442.684 2.83984H443.684V1.83984H442.684V2.83984ZM442.684 192V193H443.684V192H442.684ZM326.887 155.057V132.078H324.887V155.057H326.887ZM326.732 132.612L408.363 3.37387L406.672 2.30582L325.041 131.544L326.732 132.612ZM407.518 3.83984H425.672V1.83984H407.518V3.83984ZM424.672 2.83984V36.8633H426.672V2.83984H424.672ZM425.672 35.8633H413.992V37.8633H425.672V35.8633ZM413.147 36.3291L354.748 128.751L356.439 129.819L414.838 37.3974L413.147 36.3291ZM354.594 129.285V130.809H356.594V129.285H354.594ZM355.594 131.809H467.693V129.809H355.594V131.809ZM466.693 130.809V155.057H468.693V130.809H466.693ZM467.693 154.057H325.887V156.057H467.693V154.057ZM416.262 192V148.074H414.262V192H416.262ZM416.261 148.098L416.515 137.561L414.516 137.513L414.262 148.05L416.261 148.098ZM416.516 137.537V2.83984H414.516V137.537H416.516ZM415.516 3.83984H442.684V1.83984H415.516V3.83984ZM441.684 2.83984V192H443.684V2.83984H441.684ZM442.684 191H415.262V193H442.684V191Z" fill="#AFE8D1" fill-opacity="0.3" mask="url(#path-5-outside-3_893_6732)"/>
</svg>
