<?xml version="1.0" encoding="utf-8"?><svg viewBox="0 0 31 31" xmlns="http://www.w3.org/2000/svg" xmlns:xlink="http://www.w3.org/1999/xlink"><style>:root>svg{display:none}:root>svg:target{display:block}</style><svg fill="none" viewBox="0 0 8 16" id="arrow-right" xmlns="http://www.w3.org/2000/svg"><path d="M.667 14.667 7.333 8 .667 1.333" stroke="currentColor" stroke-opacity=".4" stroke-linecap="round" stroke-linejoin="round"/></svg><svg fill="none" viewBox="0 0 8 12" id="bc-arrow" xmlns="http://www.w3.org/2000/svg"><path d="m1.5 11 5-5-5-5" stroke="currentColor" stroke-width="1.5" stroke-linecap="round" stroke-linejoin="round"/></svg><svg fill="none" viewBox="0 0 30 31" id="chat" xmlns="http://www.w3.org/2000/svg"><path d="M5 10a2 2 0 0 1 2-2h16a2 2 0 0 1 2 2v10.108a2 2 0 0 1-2 2h-7.68a1 1 0 0 0-.58.185l-4.427 3.146a.5.5 0 0 1-.79-.408v-1.923a1 1 0 0 0-1-1H7a2 2 0 0 1-2-2V10Z" stroke="#fff" stroke-width="1.5"/></svg><svg fill="none" viewBox="0 0 30 31" id="clients" xmlns="http://www.w3.org/2000/svg"><path d="M16.75 21.5A6.196 6.196 0 0 0 15 17.19M3.75 21.5c0-3.487 2.91-6.314 6.5-6.314m0 0c1.9 0 3.441-1.497 3.441-3.343 0-1.846-1.54-3.343-3.441-3.343-1.9 0-3.441 1.497-3.441 3.343 0 1.846 1.54 3.343 3.441 3.343Zm0 0c1.874 0 3.564.77 4.75 2.004m11.25 4.31c0-3.487-2.91-6.314-6.5-6.314m0 0c1.9 0 3.441-1.497 3.441-3.343 0-1.846-1.54-3.343-3.441-3.343-1.9 0-3.441 1.497-3.441 3.343 0 1.846 1.54 3.343 3.441 3.343Zm0 0c-1.875 0-3.564.77-4.75 2.004" stroke="#fff" stroke-opacity=".7" stroke-width="1.5" stroke-linecap="round"/></svg><svg fill="none" viewBox="0 0 30 30" id="close" xmlns="http://www.w3.org/2000/svg"><path d="M21 9 9 21M9 9l12 12" stroke="#fff" stroke-opacity=".4" stroke-width="1.5" stroke-linecap="round"/></svg><svg fill="none" viewBox="0 0 30 31" id="debts" xmlns="http://www.w3.org/2000/svg"><path fill-rule="evenodd" clip-rule="evenodd" d="M9.66 10.636h.444c.065-.817.254-1.869.742-2.822.334-.652.818-1.276 1.514-1.736.702-.464 1.576-.732 2.64-.732s1.938.268 2.64.732c.696.46 1.18 1.084 1.514 1.736.488.953.677 2.005.742 2.822h.444c.806 0 1.508.55 1.7 1.332l2.207 8.982a.75.75 0 0 1-.032.457l-.897 2.243a1.75 1.75 0 0 1-1.39 1.084l-6.694.904a1.75 1.75 0 0 1-.468 0l-6.693-.904a1.75 1.75 0 0 1-1.391-1.084l-.897-2.242a.75.75 0 0 1-.032-.458l2.207-8.982a1.75 1.75 0 0 1 1.7-1.332Zm8.16-2.138c.35.685.508 1.474.57 2.138h-6.78c.062-.664.22-1.453.57-2.138.245-.475.571-.88 1.007-1.169.431-.285 1.012-.483 1.813-.483.801 0 1.382.198 1.813.483.436.288.763.694 1.006 1.17Zm-8.403 3.828a.25.25 0 0 1 .243-.19h10.68a.25.25 0 0 1 .243.19l2.005 8.157-7.559.887a.247.247 0 0 1-.058 0l-7.559-.887 2.005-8.157Zm5.787 10.534 7.15-.84-.429 1.073a.25.25 0 0 1-.198.155l-6.694.903a.25.25 0 0 1-.066 0l-6.694-.903a.25.25 0 0 1-.198-.155l-.429-1.072 7.15.84c.136.015.273.015.408 0Zm.167-2.89a.454.454 0 0 0 .22-.167.498.498 0 0 0 .053-.327c0-.047-.003-.094-.009-.14v-.124c.006-.041.012-.062.018-.062l.362-.07a6.67 6.67 0 0 0 .335-.089c.1-.047.19-.09.273-.132.082-.047.159-.103.23-.167a1.507 1.507 0 0 0 .352-.424c.082-.188.126-.393.132-.617a1.772 1.772 0 0 0-.22-.935 1.37 1.37 0 0 0-.723-.643l-.353-.141a3.125 3.125 0 0 0-.388-.141v-1.217c.135.011.268.044.397.097.135.047.253.094.352.14l.239.133c.082.041.17.056.264.044a.321.321 0 0 0 .212-.132.44.44 0 0 0 .097-.238.542.542 0 0 0-.115-.38c-.076-.105-.18-.2-.308-.281a2.499 2.499 0 0 0-.556-.23 6.23 6.23 0 0 0-.582-.159 2.45 2.45 0 0 0-.026-.379v-.097a.39.39 0 0 0-.186-.22.831.831 0 0 0-.282-.08c-.117-.011-.206.004-.264.045a.876.876 0 0 0-.194.211.394.394 0 0 0-.07.238v.256c-.118.012-.254.03-.406.053-.153.023-.28.059-.38.106a7.211 7.211 0 0 0-.3.14 1.002 1.002 0 0 0-.238.177c-.158.13-.273.282-.343.459a1.892 1.892 0 0 0-.088.29 1.42 1.42 0 0 0-.036.327c0 .135.015.259.044.37.03.106.074.212.133.318.117.211.305.367.564.467.047.03.1.056.159.08.064.017.135.04.211.07.082.023.188.05.318.08.135.029.255.061.361.096v1.535a7.37 7.37 0 0 1-.502-.097 4.402 4.402 0 0 1-.468-.15.765.765 0 0 1-.159-.097 1.46 1.46 0 0 0-.158-.124.626.626 0 0 0-.168-.08.261.261 0 0 0-.176-.008.374.374 0 0 0-.212.115.603.603 0 0 0-.106.203c-.017.076-.023.155-.017.238.012.076.032.15.062.22a.685.685 0 0 0 .158.247c.077.065.159.123.247.176a3.9 3.9 0 0 0 .274.133c.1.035.194.07.282.105.135.047.29.089.467.124.182.03.341.053.476.07v.07c.006.048.009.1.009.16.006.053.009.105.009.158a.407.407 0 0 0 .017.097.37.37 0 0 0 .15.23c.083.058.17.094.265.105.1.012.197 0 .29-.035Zm-1.305-4.673a.42.42 0 0 1-.062-.159c-.03-.2.018-.34.141-.423a.947.947 0 0 1 .485-.15v.996a2.626 2.626 0 0 1-.247-.044.744.744 0 0 1-.194-.088.535.535 0 0 1-.123-.132Zm2.204 1.993a.48.48 0 0 1 .088.211.474.474 0 0 1-.044.274.605.605 0 0 1-.15.211.716.716 0 0 1-.229.124.672.672 0 0 1-.264.017 7.223 7.223 0 0 0-.01-.617c-.005-.212-.008-.42-.008-.626a.915.915 0 0 1 .23.088c.082.035.155.08.22.132.07.053.126.115.167.186Z" fill="#fff" fill-opacity=".7"/></svg><svg fill="none" viewBox="0 0 30 30" id="edit" xmlns="http://www.w3.org/2000/svg"><path fill-rule="evenodd" clip-rule="evenodd" d="M21.401 7.304a.25.25 0 0 1 .354 0l1.029 1.03a.25.25 0 0 1 0 .353l-.852.852-1.383-1.383.852-.852Zm-1.913 1.912 1.383 1.383-5.325 5.326h-1.383v-1.383l5.325-5.326Zm3.327-2.973a1.75 1.75 0 0 0-2.475 0l-7.31 7.311a1.25 1.25 0 0 0-.367.884v1.737c0 .69.56 1.25 1.25 1.25h1.737c.331 0 .65-.132.884-.367l7.31-7.31a1.75 1.75 0 0 0 0-2.475l-1.029-1.03Zm-15.672 5.49c0-.69.56-1.25 1.25-1.25h5.266a.75.75 0 0 0 0-1.5H8.393a2.75 2.75 0 0 0-2.75 2.75v9.787a2.75 2.75 0 0 0 2.75 2.75h9.787a2.75 2.75 0 0 0 2.75-2.75V16.18a.75.75 0 0 0-1.5 0v5.341c0 .69-.56 1.25-1.25 1.25H8.393c-.69 0-1.25-.56-1.25-1.25v-9.787Z" fill="#fff" fill-opacity=".4"/></svg><svg fill="none" viewBox="0 0 24 20" id="house" xmlns="http://www.w3.org/2000/svg"><path d="m20.862 7.837-8.224-6.809a1 1 0 0 0-1.276 0l-8.224 6.81c-.722.597-.299 1.77.638 1.77h1.797V16.5a2 2 0 0 0 2 2h1.813a1 1 0 0 0 1-1v-2.425a1 1 0 0 1 1-1h1.228a1 1 0 0 1 1 1V17.5a1 1 0 0 0 1 1h1.813a2 2 0 0 0 2-2V9.607h1.797c.937 0 1.36-1.172.638-1.77Z" stroke="#21D28B" stroke-width="1.5" stroke-linecap="round"/></svg><svg fill="none" viewBox="0 0 20 20" id="logout" xmlns="http://www.w3.org/2000/svg"><mask id="ia" style="mask-type:luminance" maskUnits="userSpaceOnUse" x="0" y="0" width="20" height="20"><path d="M20 0H0v20h20V0Z" fill="#184656"/></mask><g mask="url(#ia)"><mask id="ib" style="mask-type:luminance" maskUnits="userSpaceOnUse" x="0" y="0" width="20" height="20"><path d="M0 0h20v20H0V0Z" fill="#fff"/></mask><g mask="url(#ib)" stroke="#21D28B" stroke-width="1.5" stroke-miterlimit="10" stroke-linecap="round" stroke-linejoin="round"><path d="M13.32 15.313v1.562a2.344 2.344 0 0 1-2.343 2.344H3.125a2.344 2.344 0 0 1-2.344-2.344V3.125A2.344 2.344 0 0 1 3.125.781h7.852a2.344 2.344 0 0 1 2.343 2.344v1.563M19.023 10.04H8.438M17.126 12.617l1.75-1.75c.457-.457.457-1.199 0-1.657l-1.75-1.75"/></g></g></svg><svg fill="none" viewBox="0 0 18 2" id="minus" xmlns="http://www.w3.org/2000/svg"><path d="M1 1h16" stroke="currentColor" stroke-width="1.5" stroke-linecap="round"/></svg><svg fill="none" viewBox="0 0 18 18" id="night" xmlns="http://www.w3.org/2000/svg"><g clip-path="url(#ka)" fill="#fff"><path d="M17.824 11.232a.6.6 0 0 0-.626-.14A8.053 8.053 0 0 1 6.909.801a.6.6 0 0 0-.765-.768 9.128 9.128 0 0 0-3.436 2.174 9.252 9.252 0 0 0 13.085 13.085 9.127 9.127 0 0 0 2.174-3.437.6.6 0 0 0-.142-.624Z"/><path d="M13.419 3.347a2.703 2.703 0 0 1-2.091-2.09.278.278 0 0 0-.545 0 2.703 2.703 0 0 1-2.091 2.09.278.278 0 0 0 0 .545c1.05.22 1.87 1.041 2.09 2.091a.278.278 0 0 0 .546 0 2.703 2.703 0 0 1 2.09-2.09.278.278 0 0 0 0-.546ZM12.958 7.945a1.274 1.274 0 0 1-.985-.985.278.278 0 0 0-.545 0c-.104.495-.49.881-.985.985a.278.278 0 0 0 0 .545c.495.104.882.49.985.985a.279.279 0 0 0 .545 0c.104-.495.49-.881.985-.985a.278.278 0 0 0 0-.545ZM16.72 5.37a1.722 1.722 0 0 1-1.332-1.331.278.278 0 0 0-.545 0 1.722 1.722 0 0 1-1.331 1.331.278.278 0 0 0 0 .545c.668.14 1.191.663 1.331 1.332a.278.278 0 0 0 .545 0 1.722 1.722 0 0 1 1.332-1.332.278.278 0 0 0 0-.545Z"/></g><defs><clipPath id="ka"><path fill="#fff" d="M0 0h18v18H0z"/></clipPath></defs></svg><svg fill="none" viewBox="0 0 30 31" id="payments" xmlns="http://www.w3.org/2000/svg"><path fill-rule="evenodd" clip-rule="evenodd" d="M3.954 6.666a1.75 1.75 0 0 0-1.75 1.75v13.091c0 .966.783 1.75 1.75 1.75h13.734a.75.75 0 1 0 0-1.5H3.954a.25.25 0 0 1-.25-.25v-8.901h19.25v5.185a.75.75 0 0 0 1.5 0V8.416a1.75 1.75 0 0 0-1.75-1.75H3.954Zm19 4.44H3.704v-2.69a.25.25 0 0 1 .25-.25h18.75a.25.25 0 0 1 .25.25v2.69ZM6.726 17.04a.75.75 0 0 0 0 1.5h2.358a.75.75 0 0 0 0-1.5H6.726Zm20.858 3.503a.75.75 0 0 0-1.075-1.046l-2.927 3.01-1.936-1.992a.75.75 0 1 0-1.076 1.046l2.475 2.545a.75.75 0 0 0 1.075 0l3.464-3.563Z" fill="#fff" fill-opacity=".7"/></svg><svg fill="none" viewBox="0 0 30 31" id="play" xmlns="http://www.w3.org/2000/svg"><path d="M16.5 13.313V8.5l8 7-8 7v-4.813m0-4.375L19 15.5l-2.5 2.188m0-4.375L11 8.5v4.813m5.5 4.374L11 22.5v-4.813m0-4.375 2.5 2.188-2.5 2.188m0-4.375L5.5 8.5v14l5.5-4.813" stroke="#fff" stroke-opacity=".7" stroke-width="1.5" stroke-linejoin="round"/></svg><svg fill="none" viewBox="0 0 18 18" id="plus" xmlns="http://www.w3.org/2000/svg"><path d="M9 1v16M1 9h16" stroke="currentColor" stroke-width="1.5" stroke-linecap="round"/></svg><svg fill="none" viewBox="0 0 31 30" id="plus-big" xmlns="http://www.w3.org/2000/svg"><path d="M15.5 7v16m-8-8h16" stroke="currentColor" stroke-width="1.5" stroke-linecap="round"/></svg><svg fill="none" viewBox="0 0 31 30" id="refresh" xmlns="http://www.w3.org/2000/svg"><path d="M7.423 18.053A7.999 7.999 0 0 0 14.54 22.4a7.999 7.999 0 0 0 7.119-4.346m-14.237 0-.444 3.95m.444-3.95 3.93.926m11.15-5.35a8 8 0 0 0-15.925 0m15.926 0-3.212-1.563m3.212 1.564 1.918-2.86" stroke="CurrentColor" stroke-width="1.5" stroke-linecap="round" stroke-linejoin="round"/></svg><svg fill="none" viewBox="0 0 31 30" id="reload" xmlns="http://www.w3.org/2000/svg"><path d="M7.423 18.053A7.999 7.999 0 0 0 14.54 22.4a7.999 7.999 0 0 0 7.119-4.346m-14.237 0-.444 3.95m.444-3.95 3.93.926m11.15-5.35a8 8 0 0 0-15.925 0m15.926 0-3.212-1.563m3.212 1.564 1.918-2.86" stroke="#21D28B" stroke-width="1.5" stroke-linecap="round" stroke-linejoin="round"/></svg></svg>