<svg width="138" height="30" viewBox="0 0 138 30" fill="none" xmlns="http://www.w3.org/2000/svg">
<path fill-rule="evenodd" clip-rule="evenodd" d="M0.445698 0.065558C0.332147 -0.0326527 0.161556 -0.0189554 0.0646721 0.0961517C-0.0322114 0.211259 -0.0186993 0.384187 0.0948524 0.482398L14.8246 13.2221C14.9256 13.3095 15.0744 13.3095 15.1754 13.2221L29.4595 0.867877V29.726C29.4595 29.8773 29.5805 30 29.7297 30C29.879 30 30 29.8773 30 29.726V0.273978C30 0.167096 29.9387 0.0699719 29.8429 0.0252004C29.7472 -0.0195712 29.6345 -0.00381531 29.5543 0.065558L15 12.6536L0.445698 0.065558ZM0.444599 5.95502C0.364225 5.88625 0.251795 5.871 0.156408 5.91592C0.0610218 5.96084 5.19235e-06 6.05777 5.19235e-06 6.16439V29.726C5.19235e-06 29.8773 0.121009 30 0.270275 30H15C15.1493 30 15.2703 29.8773 15.2703 29.726C15.2703 29.5747 15.1493 29.4521 15 29.4521H0.540546V6.75415L14.8257 18.9765C14.9271 19.0633 15.0757 19.0626 15.1763 18.9748L26.7979 8.83781C26.9111 8.73912 26.9238 8.56614 26.8265 8.45144C26.7291 8.33675 26.5585 8.32377 26.4453 8.42247L14.9983 18.4072L0.444599 5.95502ZM4.32433 11.7808C4.32433 11.6295 4.20332 11.5069 4.05406 11.5069C3.90479 11.5069 3.78379 11.6295 3.78379 11.7808V25.4795C3.78379 25.6308 3.90479 25.7534 4.05406 25.7534H15C15.1493 25.7534 15.2703 25.6308 15.2703 25.4795C15.2703 25.3281 15.1493 25.2055 15 25.2055H4.32433V11.7808ZM53.3984 7.44922H51.2891V22H52.9492V10.9453H53.0859L57.6074 22H59.1895L63.7695 10.9453H63.9062V22H65.6348V7.44922H63.457L58.5156 19.5195H58.3398L53.3984 7.44922ZM69.3262 21.8633C69.8926 22.1237 70.5208 22.2539 71.2109 22.2539C71.849 22.2539 72.3861 22.1595 72.8223 21.9707C73.265 21.7754 73.6198 21.5443 73.8867 21.2773C74.1536 21.0039 74.3424 20.75 74.4531 20.5156H74.5312V22H76.2109V14.8125C76.2109 13.9466 76.0677 13.2565 75.7812 12.7422C75.5013 12.2214 75.1432 11.834 74.707 11.5801C74.2773 11.3197 73.8346 11.1504 73.3789 11.0723C72.9232 10.9876 72.5195 10.9453 72.168 10.9453C71.6211 10.9453 71.0645 11.0202 70.498 11.1699C69.9381 11.3197 69.4173 11.5801 68.9355 11.9512C68.4603 12.3223 68.0794 12.8398 67.793 13.5039L69.3945 14.0703C69.5768 13.6732 69.8958 13.3021 70.3516 12.957C70.8073 12.6055 71.4323 12.4297 72.2266 12.4297C73.0013 12.4297 73.5775 12.625 73.9551 13.0156C74.3392 13.3997 74.5312 13.9401 74.5312 14.6367V14.6953C74.5312 14.9622 74.4336 15.151 74.2383 15.2617C74.0495 15.3724 73.7467 15.4505 73.3301 15.4961C72.9199 15.5417 72.3828 15.6068 71.7188 15.6914C71.2109 15.7565 70.7064 15.8444 70.2051 15.9551C69.7103 16.0658 69.2546 16.235 68.8379 16.4629C68.4277 16.6842 68.099 16.9902 67.8516 17.3809C67.6042 17.765 67.4805 18.2695 67.4805 18.8945C67.4805 19.6042 67.6465 20.2096 67.9785 20.7109C68.3105 21.2122 68.7598 21.5964 69.3262 21.8633ZM73.1445 20.3594C72.6888 20.6198 72.1289 20.75 71.4648 20.75C70.7943 20.75 70.2409 20.6035 69.8047 20.3105C69.375 20.0111 69.1602 19.5716 69.1602 18.9922C69.1602 18.5625 69.2741 18.224 69.502 17.9766C69.7363 17.7292 70.0423 17.5436 70.4199 17.4199C70.7975 17.2897 71.2044 17.1953 71.6406 17.1367L72.3438 17.0586C72.6367 17.0195 72.9362 16.974 73.2422 16.9219C73.5547 16.8698 73.8281 16.8112 74.0625 16.7461C74.3034 16.6745 74.4596 16.5964 74.5312 16.5117V18.0547C74.5312 18.5039 74.4141 18.9368 74.1797 19.3535C73.9453 19.7637 73.6003 20.099 73.1445 20.3594ZM79.8633 25.6523C80.5729 26.0951 81.5365 26.3164 82.7539 26.3164C83.6263 26.3164 84.4173 26.1764 85.127 25.8965C85.8431 25.623 86.4095 25.1901 86.8262 24.5977C87.2494 24.0117 87.4609 23.25 87.4609 22.3125V11.082H85.8594V12.8203H85.6836C85.5599 12.6315 85.3841 12.3906 85.1562 12.0977C84.9349 11.7982 84.6126 11.5312 84.1895 11.2969C83.7728 11.0625 83.2096 10.9453 82.5 10.9453C81.582 10.9453 80.7715 11.1764 80.0684 11.6387C79.3652 12.0944 78.8151 12.7389 78.418 13.5723C78.0273 14.3991 77.832 15.3724 77.832 16.4922C77.832 17.625 78.0339 18.5885 78.4375 19.3828C78.8477 20.1771 79.401 20.7826 80.0977 21.1992C80.7943 21.6159 81.582 21.8242 82.4609 21.8242C83.1771 21.8242 83.7435 21.7135 84.1602 21.4922C84.5833 21.2643 84.9056 21.0072 85.127 20.7207C85.3548 20.4277 85.5273 20.1836 85.6445 19.9883H85.8008V22.1953C85.8008 23.1068 85.5111 23.7741 84.9316 24.1973C84.3587 24.6204 83.6328 24.832 82.7539 24.832C82.0964 24.832 81.5658 24.7376 81.1621 24.5488C80.7585 24.36 80.4395 24.1354 80.2051 23.875C79.9707 23.6211 79.7786 23.3932 79.6289 23.1914L78.3008 24.1289C78.6393 24.7018 79.1602 25.2096 79.8633 25.6523ZM85.0098 19.2949C84.4759 19.9785 83.7044 20.3203 82.6953 20.3203C81.9987 20.3203 81.4128 20.1576 80.9375 19.832C80.4622 19.5 80.1042 19.0443 79.8633 18.4648C79.6289 17.8789 79.5117 17.2083 79.5117 16.4531C79.5117 15.7174 79.6289 15.0469 79.8633 14.4414C80.0977 13.8359 80.4492 13.3542 80.918 12.9961C81.3932 12.6315 81.9857 12.4492 82.6953 12.4492C83.3789 12.4492 83.9518 12.6217 84.4141 12.9668C84.8828 13.3053 85.2344 13.7741 85.4688 14.373C85.7031 14.972 85.8203 15.6654 85.8203 16.4531C85.8203 17.6641 85.5501 18.6113 85.0098 19.2949ZM89.6094 11.082V22H91.2695V11.082H89.6094ZM89.6094 8.93359C89.8438 9.15495 90.1237 9.26562 90.4492 9.26562C90.7747 9.26562 91.0547 9.15495 91.2891 8.93359C91.5234 8.71224 91.6406 8.44531 91.6406 8.13281C91.6406 7.82031 91.5234 7.55339 91.2891 7.33203C91.0547 7.11068 90.7747 7 90.4492 7C90.1237 7 89.8438 7.11068 89.6094 7.33203C89.375 7.55339 89.2578 7.82031 89.2578 8.13281C89.2578 8.44531 89.375 8.71224 89.6094 8.93359ZM95.1953 21.5117C95.9375 21.9935 96.8164 22.2344 97.832 22.2344C98.6393 22.2344 99.3457 22.0846 99.9512 21.7852C100.563 21.4792 101.055 21.069 101.426 20.5547C101.803 20.0404 102.038 19.4609 102.129 18.8164H100.449C100.299 19.4089 99.9902 19.8776 99.5215 20.2227C99.0527 20.5612 98.4896 20.7305 97.832 20.7305C97.1745 20.7305 96.5983 20.5579 96.1035 20.2129C95.6152 19.8678 95.2376 19.3828 94.9707 18.7578C94.7038 18.1263 94.5703 17.3906 94.5703 16.5508C94.5703 15.724 94.707 15.0046 94.9805 14.3926C95.2539 13.7741 95.6348 13.2956 96.123 12.957C96.6113 12.6185 97.181 12.4492 97.832 12.4492C98.3268 12.4492 98.7533 12.5404 99.1113 12.7227C99.4759 12.8984 99.7689 13.1328 99.9902 13.4258C100.212 13.7188 100.365 14.0312 100.449 14.3633H102.129C102.038 13.6797 101.794 13.0807 101.396 12.5664C101.006 12.0521 100.501 11.6549 99.8828 11.375C99.2708 11.0885 98.5807 10.9453 97.8125 10.9453C96.8294 10.9453 95.9668 11.1862 95.2246 11.668C94.4889 12.1497 93.916 12.8171 93.5059 13.6699C93.0957 14.5163 92.8906 15.4961 92.8906 16.6094C92.8906 17.6966 93.0892 18.6634 93.4863 19.5098C93.89 20.3561 94.4596 21.0234 95.1953 21.5117ZM103.926 7.44922V22H112.461V20.4375H105.684V7.44922H103.926ZM114.023 11.082V22H115.684V11.082H114.023ZM114.023 8.93359C114.258 9.15495 114.538 9.26562 114.863 9.26562C115.189 9.26562 115.469 9.15495 115.703 8.93359C115.938 8.71224 116.055 8.44531 116.055 8.13281C116.055 7.82031 115.938 7.55339 115.703 7.33203C115.469 7.11068 115.189 7 114.863 7C114.538 7 114.258 7.11068 114.023 7.33203C113.789 7.55339 113.672 7.82031 113.672 8.13281C113.672 8.44531 113.789 8.71224 114.023 8.93359ZM119.492 22V15.4375C119.492 14.7995 119.613 14.2591 119.854 13.8164C120.101 13.3737 120.436 13.0352 120.859 12.8008C121.283 12.5664 121.761 12.4492 122.295 12.4492C123.07 12.4492 123.682 12.6934 124.131 13.1816C124.58 13.6634 124.805 14.3307 124.805 15.1836V22H126.465V15.0664C126.465 14.1354 126.309 13.3672 125.996 12.7617C125.69 12.1497 125.26 11.694 124.707 11.3945C124.154 11.0951 123.509 10.9453 122.773 10.9453C121.947 10.9453 121.273 11.1146 120.752 11.4531C120.231 11.7917 119.844 12.2409 119.59 12.8008H119.434V11.082H117.832V22H119.492ZM130.459 21.5312C131.227 22 132.135 22.2344 133.184 22.2344C133.919 22.2344 134.583 22.1204 135.176 21.8926C135.768 21.6582 136.263 21.3359 136.66 20.9258C137.064 20.5091 137.35 20.0273 137.52 19.4805L135.898 19.0117C135.762 19.3893 135.563 19.7083 135.303 19.9688C135.042 20.2227 134.733 20.4147 134.375 20.5449C134.017 20.6686 133.62 20.7305 133.184 20.7305C132.507 20.7305 131.911 20.584 131.396 20.291C130.882 19.9915 130.482 19.5553 130.195 18.9824C129.936 18.4644 129.794 17.8427 129.77 17.1172H137.695V16.3945C137.695 15.3789 137.559 14.5228 137.285 13.8262C137.012 13.1296 136.644 12.5697 136.182 12.1465C135.726 11.7233 135.218 11.4173 134.658 11.2285C134.098 11.0397 133.535 10.9453 132.969 10.9453C131.986 10.9453 131.126 11.1862 130.391 11.668C129.661 12.1497 129.095 12.8171 128.691 13.6699C128.288 14.5228 128.086 15.5091 128.086 16.6289C128.086 17.7422 128.291 18.722 128.701 19.5684C129.111 20.4082 129.697 21.0625 130.459 21.5312ZM129.773 15.6719C129.804 15.1613 129.928 14.6795 130.146 14.2266C130.4 13.6992 130.765 13.2728 131.24 12.9473C131.722 12.6152 132.298 12.4492 132.969 12.4492C133.639 12.4492 134.199 12.612 134.648 12.9375C135.104 13.263 135.446 13.709 135.674 14.2754C135.843 14.696 135.949 15.1615 135.993 15.6719H129.773Z" fill="url(#paint0_linear_989_6394)"/>
<defs>
<linearGradient id="paint0_linear_989_6394" x1="0" y1="0" x2="152.856" y2="21.478" gradientUnits="userSpaceOnUse">
<stop stop-color="#AB9162"/>
<stop offset="0.328125" stop-color="#DBB57A"/>
<stop offset="0.447917" stop-color="#F4E4CB"/>
<stop offset="0.614583" stop-color="#DBB57A"/>
</linearGradient>
</defs>
</svg>
