<svg width="30" height="31" viewBox="0 0 30 31" fill="none" xmlns="http://www.w3.org/2000/svg">
<path d="M16.75 21.5C16.75 19.8337 16.0856 18.3181 15 17.1897M3.75 21.5C3.75 18.0127 6.66015 15.1857 10.25 15.1857M10.25 15.1857C12.1505 15.1857 13.6912 13.6891 13.6912 11.8429C13.6912 9.99665 12.1505 8.5 10.25 8.5C8.34949 8.5 6.80882 9.99665 6.80882 11.8429C6.80882 13.6891 8.34949 15.1857 10.25 15.1857ZM10.25 15.1857C12.1245 15.1857 13.8137 15.9565 15 17.1897M26.25 21.5C26.25 18.0127 23.3399 15.1857 19.75 15.1857M19.75 15.1857C21.6505 15.1857 23.1912 13.6891 23.1912 11.8429C23.1912 9.99665 21.6505 8.5 19.75 8.5C17.8495 8.5 16.3088 9.99665 16.3088 11.8429C16.3088 13.6891 17.8495 15.1857 19.75 15.1857ZM19.75 15.1857C17.8755 15.1857 16.1863 15.9565 15 17.1897" stroke="white" stroke-opacity="0.7" stroke-width="1.5" stroke-linecap="round"/>
</svg>
