<svg width="30" height="31" viewBox="0 0 30 31" fill="none" xmlns="http://www.w3.org/2000/svg">
<path fill-rule="evenodd" clip-rule="evenodd" d="M9.65964 10.6355H10.1042C10.1689 9.81906 10.3575 8.76722 10.8458 7.81424C11.1797 7.1625 11.6637 6.53782 12.3604 6.07761C13.0619 5.61429 13.9361 5.34619 15 5.34619C16.0639 5.34619 16.9381 5.61429 17.6396 6.07761C18.3363 6.53782 18.8203 7.1625 19.1543 7.81424C19.6425 8.76722 19.8311 9.81906 19.8958 10.6355H20.3404C21.146 10.6355 21.8476 11.1855 22.0398 11.9679L24.2469 20.9499C24.2843 21.1021 24.2731 21.262 24.2149 21.4075L23.318 23.6497C23.0837 24.2354 22.5524 24.6496 21.9274 24.7341L15.2342 25.6379C15.0788 25.6589 14.9212 25.6589 14.7658 25.6379L8.07265 24.7341C7.44757 24.6497 6.91628 24.2354 6.68202 23.6497L5.78509 21.4075C5.72692 21.262 5.71574 21.1021 5.75311 20.9499L7.96019 11.9679C8.15244 11.1855 8.85399 10.6355 9.65964 10.6355ZM17.8193 8.49822C18.1701 9.18303 18.3277 9.97238 18.3901 10.6355H11.6099C11.6723 9.97238 11.8299 9.18303 12.1807 8.49822C12.4245 8.02251 12.7512 7.61717 13.1872 7.32922C13.6184 7.04438 14.1987 6.84619 15 6.84619C15.8013 6.84619 16.3816 7.04438 16.8128 7.32922C17.2488 7.61717 17.5755 8.02251 17.8193 8.49822ZM9.41686 12.3258C9.44432 12.2141 9.54454 12.1355 9.65964 12.1355H10.8243H19.1758H20.3404C20.4555 12.1355 20.5557 12.2141 20.5832 12.3258L22.5876 20.4831L15.0292 21.3703C15.0098 21.3726 14.9902 21.3726 14.9709 21.3703L7.41246 20.4831L9.41686 12.3258ZM15.204 22.8601L22.354 22.0208L21.9253 23.0927C21.8918 23.1763 21.8159 23.2355 21.7266 23.2476L15.0335 24.1514C15.0113 24.1544 14.9888 24.1544 14.9666 24.1514L8.27339 23.2476C8.1841 23.2355 8.1082 23.1763 8.07473 23.0927L7.64597 22.0208L14.796 22.8601C14.9315 22.876 15.0685 22.876 15.204 22.8601ZM15.3709 19.9702C15.4649 19.9349 15.5384 19.8791 15.5913 19.8026C15.6325 19.7321 15.653 19.6469 15.653 19.5469C15.653 19.541 15.6501 19.5175 15.6442 19.4764C15.6442 19.4294 15.6413 19.3823 15.6354 19.3353V19.2119C15.6413 19.1707 15.6472 19.1501 15.653 19.1501C15.7706 19.1266 15.8911 19.1031 16.0146 19.0796C16.138 19.0502 16.2497 19.0208 16.3496 18.9914C16.4496 18.9444 16.5407 18.9003 16.623 18.8591C16.7053 18.8121 16.7817 18.7563 16.8522 18.6916C16.9228 18.6328 16.9874 18.5682 17.0462 18.4976C17.105 18.4271 17.1579 18.3507 17.205 18.2684C17.2872 18.0802 17.3313 17.8745 17.3372 17.6511C17.349 17.316 17.2755 17.0045 17.1168 16.7164C16.9639 16.4225 16.7229 16.208 16.3937 16.0727C16.2938 16.0316 16.1762 15.9846 16.041 15.9317C15.9058 15.8729 15.7765 15.8258 15.653 15.7906V14.5737C15.7882 14.5855 15.9205 14.6178 16.0498 14.6707C16.185 14.7178 16.3026 14.7648 16.4025 14.8118C16.479 14.853 16.5583 14.897 16.6406 14.9441C16.7229 14.9852 16.8111 14.9999 16.9051 14.9882C16.9874 14.9764 17.058 14.9323 17.1168 14.8559C17.1756 14.7795 17.2079 14.7001 17.2138 14.6178C17.2196 14.465 17.1814 14.3386 17.0991 14.2387C17.0227 14.1328 16.9198 14.0388 16.7905 13.9565C16.6259 13.8624 16.4407 13.786 16.235 13.7272C16.0351 13.6626 15.8411 13.6097 15.653 13.5685C15.653 13.4862 15.6501 13.4127 15.6442 13.3481C15.6383 13.2893 15.6325 13.2364 15.6266 13.1894V13.0924C15.5854 12.9865 15.5237 12.9131 15.4414 12.8719C15.3591 12.8308 15.2651 12.8043 15.1592 12.7926C15.0417 12.7808 14.9535 12.7955 14.8947 12.8366C14.8359 12.8778 14.7713 12.9483 14.7007 13.0483C14.6537 13.1129 14.6302 13.1923 14.6302 13.2863V13.5421C14.5126 13.5538 14.3774 13.5715 14.2246 13.595C14.0717 13.6185 13.9453 13.6538 13.8454 13.7008C13.7396 13.7478 13.6397 13.7948 13.5456 13.8419C13.4574 13.8889 13.3781 13.9477 13.3075 14.0182C13.1488 14.1475 13.0342 14.3004 12.9636 14.4767C12.9284 14.5649 12.899 14.6619 12.8755 14.7677C12.8519 14.8677 12.8402 14.9764 12.8402 15.094C12.8402 15.2292 12.8549 15.3526 12.8843 15.4643C12.9137 15.5701 12.9577 15.6759 13.0165 15.7818C13.1341 15.9934 13.3222 16.1492 13.5809 16.2491C13.6279 16.2785 13.6808 16.3049 13.7396 16.3285C13.8043 16.3461 13.8748 16.3696 13.9512 16.399C14.0335 16.4225 14.1393 16.449 14.2687 16.4784C14.4039 16.5078 14.5244 16.5401 14.6302 16.5754V18.1096C14.4773 18.0861 14.3098 18.0538 14.1276 18.0126C13.9512 17.9656 13.7954 17.9156 13.6602 17.8627C13.6073 17.8392 13.5544 17.8069 13.5015 17.7657C13.4486 17.7187 13.3957 17.6776 13.3428 17.6423C13.2899 17.607 13.234 17.5806 13.1753 17.5629C13.1165 17.5394 13.0577 17.5365 12.9989 17.5541C12.9107 17.5718 12.8402 17.61 12.7873 17.6688C12.7402 17.7275 12.705 17.7951 12.6815 17.8716C12.6638 17.948 12.6579 18.0273 12.6638 18.1096C12.6756 18.1861 12.6962 18.2595 12.7256 18.3301C12.7608 18.4241 12.8137 18.5064 12.8843 18.577C12.9607 18.6416 13.043 18.7004 13.1312 18.7533C13.2193 18.8004 13.3105 18.8444 13.4045 18.8856C13.5044 18.9209 13.5985 18.9561 13.6867 18.9914C13.8219 19.0384 13.9777 19.0796 14.154 19.1149C14.3363 19.1443 14.495 19.1678 14.6302 19.1854V19.2559C14.6361 19.303 14.639 19.3559 14.639 19.4147C14.6449 19.4676 14.6478 19.5205 14.6478 19.5734C14.6537 19.6263 14.6596 19.6586 14.6654 19.6704C14.689 19.7703 14.7389 19.8467 14.8153 19.8996C14.8976 19.9584 14.9858 19.9937 15.0799 20.0054C15.1798 20.0172 15.2768 20.0054 15.3709 19.9702ZM14.0658 15.2968C14.0306 15.238 14.01 15.1851 14.0041 15.1381C13.9747 14.9382 14.0218 14.7971 14.1452 14.7148C14.2745 14.6266 14.4362 14.5767 14.6302 14.5649V15.5613C14.542 15.5496 14.4597 15.5349 14.3833 15.5172C14.3069 15.4937 14.2422 15.4643 14.1893 15.4291C14.1423 15.3938 14.1011 15.3497 14.0658 15.2968ZM16.2703 17.2896C16.3173 17.3543 16.3467 17.4248 16.3584 17.5012C16.3702 17.6012 16.3555 17.6923 16.3144 17.7746C16.2791 17.8569 16.2291 17.9274 16.1645 17.9862C16.0998 18.0391 16.0234 18.0802 15.9352 18.1096C15.847 18.1332 15.7588 18.139 15.6707 18.1273C15.6765 17.9215 15.6736 17.7158 15.6618 17.51C15.656 17.2984 15.653 17.0897 15.653 16.884C15.7295 16.9016 15.8059 16.931 15.8823 16.9722C15.9646 17.0074 16.0381 17.0515 16.1027 17.1044C16.1733 17.1573 16.2291 17.219 16.2703 17.2896Z" fill="white" fill-opacity="0.7"/>
</svg>
