<svg width="30" height="30" viewBox="0 0 30 30" fill="none" xmlns="http://www.w3.org/2000/svg">
<path fill-rule="evenodd" clip-rule="evenodd" d="M21.401 7.30369C21.4986 7.20606 21.6569 7.20606 21.7546 7.30369L22.784 8.33317C22.8817 8.4308 22.8817 8.58909 22.784 8.68672L21.932 9.53871L20.549 8.15568L21.401 7.30369ZM19.4884 9.21634L20.8714 10.5994L15.5461 15.9246H14.1631L14.1631 14.5416L19.4884 9.21634ZM22.8152 6.24303C22.1318 5.55961 21.0238 5.55961 20.3404 6.24303L13.0292 13.5542C12.7948 13.7886 12.6631 14.1065 12.6631 14.438V16.1746C12.6631 16.865 13.2228 17.4246 13.9131 17.4246L15.6497 17.4246C15.9812 17.4246 16.2992 17.2929 16.5336 17.0585L23.8447 9.74738C24.5281 9.06397 24.5281 7.95593 23.8447 7.27251L22.8152 6.24303ZM7.14307 11.7334C7.14307 11.0431 7.70271 10.4834 8.39307 10.4834H13.6594C14.0736 10.4834 14.4094 10.1476 14.4094 9.73343C14.4094 9.31921 14.0736 8.98343 13.6594 8.98343H8.39307C6.87428 8.98343 5.64307 10.2146 5.64307 11.7334V21.5202C5.64307 23.039 6.87429 24.2702 8.39307 24.2702H18.1799C19.6987 24.2702 20.9299 23.039 20.9299 21.5202V16.1788C20.9299 15.7646 20.5941 15.4288 20.1799 15.4288C19.7657 15.4288 19.4299 15.7646 19.4299 16.1788V21.5202C19.4299 22.2106 18.8702 22.7702 18.1799 22.7702H8.39307C7.70271 22.7702 7.14307 22.2106 7.14307 21.5202V11.7334Z" fill="white" fill-opacity="0.4"/>
</svg>
