<svg width="30" height="30" viewBox="0 0 30 30" fill="none" xmlns="http://www.w3.org/2000/svg">
<path fill-rule="evenodd" clip-rule="evenodd" d="M7.92719 19.5332C6.31955 18.4509 5.11213 16.9154 4.00965 14.9998C5.11213 13.0842 6.31955 11.5487 7.92719 10.4664C9.62544 9.32307 11.841 8.63867 15 8.63867C18.159 8.63867 20.3745 9.32307 22.0728 10.4664C23.6804 11.5487 24.8878 13.0842 25.9903 14.9998C24.8878 16.9154 23.6804 18.4509 22.0728 19.5332C20.3745 20.6765 18.159 21.3609 15 21.3609C11.841 21.3609 9.62544 20.6765 7.92719 19.5332ZM15 7.13867C11.6134 7.13867 9.08819 7.8765 7.0895 9.22208C5.10086 10.5609 3.70411 12.4547 2.49251 14.6356L2.29016 14.9998L2.49251 15.364C3.70411 17.5449 5.10086 19.4387 7.0895 20.7775C9.08819 22.1231 11.6134 22.8609 15 22.8609C18.3866 22.8609 20.9118 22.1231 22.9105 20.7775C24.8991 19.4387 26.2959 17.5449 27.5075 15.364L27.7098 14.9998L27.5075 14.6356C26.2959 12.4547 24.8991 10.5609 22.9105 9.22208C20.9118 7.8765 18.3866 7.13867 15 7.13867ZM11.75 14.9998C11.75 13.2049 13.2051 11.7498 15 11.7498C16.7949 11.7498 18.25 13.2049 18.25 14.9998C18.25 16.7947 16.7949 18.2498 15 18.2498C13.2051 18.2498 11.75 16.7947 11.75 14.9998ZM15 10.2498C12.3766 10.2498 10.25 12.3764 10.25 14.9998C10.25 17.6231 12.3766 19.7498 15 19.7498C17.6234 19.7498 19.75 17.6231 19.75 14.9998C19.75 12.3764 17.6234 10.2498 15 10.2498Z" fill="currentColor"/>
</svg>
