<svg xmlns="http://www.w3.org/2000/svg" width="24" height="20" viewBox="0 0 24 20" fill="none">
  <path d="M20.8619 7.83714L12.6377 1.02801C12.2678 0.721685 11.7322 0.721685 11.3623 1.02801L3.13814 7.83714C2.41649 8.43462 2.83898 9.6074 3.77587 9.6074H5.57268V16.5C5.57268 17.6046 6.46811 18.5 7.57268 18.5H9.38611C9.9384 18.5 10.3861 18.0523 10.3861 17.5V15.0752C10.3861 14.5229 10.8338 14.0752 11.3861 14.0752H12.6139C13.1662 14.0752 13.6139 14.5229 13.6139 15.0752V17.5C13.6139 18.0523 14.0616 18.5 14.6139 18.5H16.4273C17.5319 18.5 18.4273 17.6046 18.4273 16.5V9.6074H20.2241C21.161 9.6074 21.5835 8.43462 20.8619 7.83714Z" stroke="#21D28B" stroke-width="1.5" stroke-linecap="round"/>
</svg>