<svg width="18" height="18" viewBox="0 0 18 18" fill="none" xmlns="http://www.w3.org/2000/svg">
<g clip-path="url(#clip0_811_17422)">
<path d="M17.8236 11.2316C17.7433 11.1515 17.642 11.0958 17.5314 11.071C17.4207 11.0461 17.3053 11.0532 17.1985 11.0912C15.763 11.603 14.2118 11.697 12.7251 11.3622C11.2383 11.0275 9.8771 10.2777 8.79952 9.20011C7.72195 8.12249 6.97228 6.76123 6.6376 5.27449C6.30293 3.78774 6.39699 2.23656 6.90886 0.801153C6.9469 0.694318 6.95388 0.578892 6.92899 0.468254C6.90409 0.357617 6.84835 0.2563 6.76823 0.176049C6.6881 0.0957984 6.58687 0.0399009 6.47627 0.0148367C6.36567 -0.0102274 6.25023 -0.0034316 6.14334 0.0344364C4.8492 0.491429 3.67478 1.23438 2.70747 2.208C0.973406 3.94335 -0.000463615 6.29633 1.65572e-07 8.74956C0.000463946 11.2028 0.975223 13.5554 2.70994 15.2901C4.44466 17.0248 6.7973 17.9995 9.25056 18C11.7038 18.0005 14.0568 17.0266 15.7922 15.2926C16.7659 14.3251 17.5089 13.1505 17.9658 11.8561C18.0035 11.7492 18.0102 11.6338 17.985 11.5233C17.9599 11.4128 17.9039 11.3116 17.8236 11.2316Z" fill="white"/>
<path d="M13.4187 3.34742C12.3686 3.12729 11.5478 2.30654 11.3277 1.25645C11.3007 1.12755 11.187 1.0352 11.0553 1.0352C10.9235 1.0352 10.8098 1.12755 10.7828 1.25647C10.5627 2.30654 9.74194 3.12728 8.69186 3.34737C8.56294 3.37439 8.47058 3.48811 8.47058 3.61984C8.47058 3.75157 8.56292 3.86528 8.69186 3.8923C9.74192 4.11243 10.5626 4.93317 10.7828 5.98324C10.8098 6.11216 10.9235 6.20452 11.0552 6.20452C11.1869 6.20452 11.3007 6.11218 11.3277 5.98324C11.5478 4.93317 12.3686 4.11243 13.4187 3.89235C13.5476 3.86533 13.6399 3.75163 13.6399 3.61989C13.6399 3.48816 13.5476 3.37444 13.4187 3.34742Z" fill="white"/>
<path d="M12.9584 7.94513C12.4636 7.84144 12.0769 7.45474 11.9732 6.95996C11.9462 6.83104 11.8325 6.73868 11.7007 6.73868C11.569 6.73868 11.4553 6.831 11.4283 6.95994C11.3245 7.4547 10.9378 7.8414 10.4431 7.94511C10.3142 7.97213 10.2218 8.08585 10.2218 8.21758C10.2218 8.34931 10.3141 8.46302 10.4431 8.49004C10.9378 8.59375 11.3245 8.98047 11.4282 9.47523C11.4553 9.60415 11.569 9.69651 11.7007 9.69651C11.8324 9.69651 11.9461 9.60418 11.9732 9.47523C12.0769 8.98047 12.4636 8.59377 12.9584 8.49006C13.0873 8.46304 13.1796 8.34932 13.1796 8.21759C13.1796 8.08586 13.0873 7.97217 12.9584 7.94513Z" fill="white"/>
<path d="M16.7198 5.37012C16.0511 5.22993 15.5284 4.70723 15.3882 4.03851C15.3612 3.90959 15.2475 3.81723 15.1158 3.81723C14.984 3.81723 14.8703 3.90956 14.8433 4.0385C14.7031 4.70723 14.1804 5.22991 13.5117 5.37008C13.3828 5.3971 13.2904 5.51081 13.2904 5.64254C13.2904 5.77427 13.3827 5.88797 13.5117 5.91501C14.1804 6.0552 14.7031 6.57787 14.8433 7.24661C14.8703 7.37553 14.984 7.46789 15.1157 7.46789C15.2474 7.46789 15.3612 7.37556 15.3882 7.24661C15.5284 6.57787 16.0511 6.0552 16.7198 5.91504C16.8487 5.888 16.9411 5.77431 16.9411 5.64258C16.9411 5.51085 16.8487 5.39714 16.7198 5.37012Z" fill="white"/>
</g>
<defs>
<clipPath id="clip0_811_17422">
<rect width="18" height="18" fill="white"/>
</clipPath>
</defs>
</svg>
