<svg width="30" height="31" viewBox="0 0 30 31" fill="none" xmlns="http://www.w3.org/2000/svg">
<path fill-rule="evenodd" clip-rule="evenodd" d="M3.95361 6.66602C2.98712 6.66602 2.20361 7.44952 2.20361 8.41602V11.8556V21.507C2.20361 22.4735 2.98711 23.257 3.95361 23.257H17.6884C18.1027 23.257 18.4384 22.9213 18.4384 22.507C18.4384 22.0928 18.1027 21.757 17.6884 21.757H3.95361C3.81554 21.757 3.70361 21.6451 3.70361 21.507V12.6056H22.9538V17.7911C22.9538 18.2053 23.2896 18.5411 23.7038 18.5411C24.118 18.5411 24.4538 18.2053 24.4538 17.7911V11.8556V8.41602C24.4538 7.44952 23.6703 6.66602 22.7038 6.66602H3.95361ZM22.9538 11.1056H3.70361V8.41602C3.70361 8.27794 3.81554 8.16602 3.95361 8.16602H22.7038C22.8419 8.16602 22.9538 8.27794 22.9538 8.41602V11.1056ZM6.72637 17.0411C6.31216 17.0411 5.97637 17.3769 5.97637 17.7911C5.97637 18.2053 6.31216 18.5411 6.72637 18.5411H9.08435C9.49856 18.5411 9.83435 18.2053 9.83435 17.7911C9.83435 17.3769 9.49856 17.0411 9.08435 17.0411H6.72637ZM27.5843 20.544C27.873 20.247 27.8663 19.7722 27.5694 19.4835C27.2724 19.1947 26.7975 19.2014 26.5088 19.4984L23.5825 22.5083L21.646 20.5164C21.3572 20.2194 20.8824 20.2127 20.5854 20.5015C20.2884 20.7902 20.2817 21.265 20.5705 21.562L23.0448 24.107C23.186 24.2523 23.3799 24.3342 23.5825 24.3342C23.7851 24.3342 23.979 24.2523 24.1203 24.107L27.5843 20.544Z" fill="white" fill-opacity="0.7"/>
</svg>
