<svg width="30" height="30" viewBox="0 0 30 30" fill="none" xmlns="http://www.w3.org/2000/svg">
<path d="M7.09131 8.68394H8.99181M22.9087 8.68394H21.1307M8.99181 8.68394C8.99181 12.5463 8.99181 20.4427 8.99181 21.1294C8.99181 21.9877 9.35965 23.8269 10.6471 23.8269C11.9346 23.8269 18.6784 23.8269 19.4141 23.8269C20.1498 23.8269 21.1307 22.4168 21.1307 21.1294C21.1307 20.0994 21.1307 12.4033 21.1307 8.68394M8.99181 8.68394H11.812M21.1307 8.68394H18.0653M11.812 8.68394C11.812 6.66079 12.5844 6.17287 13.1975 6.17287C13.8106 6.17287 15.4046 6.17287 16.5694 6.17287C17.7343 6.17287 18.0653 7.15124 18.0653 8.68394M11.812 8.68394H18.0653M12.8815 12.3996V20.3205M17.2343 12.3996V20.3205" stroke="white" stroke-opacity="0.4" stroke-width="1.5" stroke-linecap="round"/>
</svg>
